<svg viewBox="0 0 181 163" fill="currentColor" xmlns="http://www.w3.org/2000/svg"><path fill-rule="evenodd" clip-rule="evenodd" d="M73.295 66.839c.52 1.723 3.485 1.02 3.807 2.937.931 8.198-1.91 12.655-5.922 15.95-2.502 9.652-10.038 18.327-20.73 17.626-10.414-.683-16.296-9.116-19.04-18.466-4.444-2.267-6.206-9.094-5.5-15.11.302-1.798 3-1.22 3.809-2.517.23-5.651-2.804-15.229.423-19.726.692-.965 3.052-1.53 4.23-2.518 2.507-2.103 3.793-4.98 5.5-5.877 8.582-4.501 25.054-1.721 31.308 4.617 5.613 5.69 3.892 13.734 2.115 23.084zm-25.021 65.527c.767-3.767 2.574-6.643 2.09-10.583-.4-3.248-3.616-5.694-.418-8.89h7.103c2.353 2.37 1.671 6.397-.418 8.467.36 3.728 1.387 6.778 1.671 10.583 7.128-5.621 11.09-14.446 17.132-21.166 5.22 1.625 9.668 4.033 13.789 6.773-1.396 3.95-2.665 8.025-4.597 11.43-13.859-5.783-19.938 17.625-5.85 19.897 8.051 1.298 15.584-7.7 10.447-16.51 1.56-3.921 3.824-7.132 4.596-11.853 9.933 3.412 14.249 13.859 12.534 26.246-1.196 8.647-31.018 14.217-42.201 15.241-15.674 1.435-29.742-.521-43.456-4.234-8.125-2.201-18.8-5.69-20.056-11.007-2.754-11.65 3.609-24.146 14.624-27.516 4.127 5.3-2.819 8.043-2.924 16.933-.072 6.112 1.738 13.93 6.267 15.24 5.527 1.599 11.466-4.791 5.432-8.467-2.396-.452-3.172.737-5.014.847-1.399-5.695-1.627-14.764 2.925-16.933 8.515-.584 10.618 5.329 12.952 11.007-3.425.906-5.315 8.567.418 8.889 2.49.141 5.46-2.917 5.85-4.656 1.67-7.428-7.266-19.252-13.789-20.743-1.508-.346-3.28.575-4.177-.423-1.64-1.02-2.273-3.06-2.925-5.081 3.534-1.78 6.962-3.671 10.863-5.079 6.38 6.517 10.786 15.035 17.132 21.588z"/><path fill="currentColor" fill-rule="evenodd" clip-rule="evenodd" d="M93.435 141.959c5.534-1.887 8.073 1.321 7.977 5.337-.16 6.678-10.014 8.031-11.7 2.135-1.362-4.771.785-6.469 3.723-7.472zM166.758 0h-52.874c-7.404 0-13.406 6.14-13.406 13.712v73.565l16.071-15.288h32.959c7.405 0 30.655-6.81 30.655-30.852V13.712c.001-7.573-6-13.712-13.405-13.712zm-5.615 43.221h-14.589v14.64h-12.557V43.22h-14.59v-12.6h14.59V15.982h12.557v14.64h14.589v12.6z"/></svg>